<svg width="143" height="156" viewBox="0 0 143 156" fill="none" xmlns="http://www.w3.org/2000/svg">
<rect x="82.5" y="65.5" width="26" height="26" rx="0.5" stroke="black" stroke-opacity="0.2" stroke-linejoin="round"/>
<rect x="0.5" y="0.5" width="142" height="155" rx="0.5" stroke="black" stroke-opacity="0.2" stroke-linecap="round" stroke-linejoin="round"/>
<path d="M96.3536 47.6464C96.1583 47.4512 95.8417 47.4512 95.6464 47.6464L92.4645 50.8284C92.2692 51.0237 92.2692 51.3403 92.4645 51.5355C92.6597 51.7308 92.9763 51.7308 93.1716 51.5355L96 48.7071L98.8284 51.5355C99.0237 51.7308 99.3403 51.7308 99.5355 51.5355C99.7308 51.3403 99.7308 51.0237 99.5355 50.8284L96.3536 47.6464ZM96.5 78L96.5 48L95.5 48L95.5 78L96.5 78Z" fill="black" fill-opacity="0.2"/>
<path d="M127.354 78.3536C127.549 78.1583 127.549 77.8417 127.354 77.6465L124.172 74.4645C123.976 74.2692 123.66 74.2692 123.464 74.4645C123.269 74.6597 123.269 74.9763 123.464 75.1716L126.293 78L123.464 80.8284C123.269 81.0237 123.269 81.3403 123.464 81.5355C123.66 81.7308 123.976 81.7308 124.172 81.5355L127.354 78.3536ZM96 78.5L127 78.5L127 77.5L96 77.5L96 78.5Z" fill="black" fill-opacity="0.2"/>
</svg>
